<svg width="20" height="20" viewBox="0 0 48 48" fill="none" xmlns="http://www.w3.org/2000/svg">
    <path fill="#4285F4" d="M43.6 20.5H42V20H24v8h11.3C34.2 32.4 29.6 36 24 36c-6.6 0-12-5.4-12-12s5.4-12 12-12c3.1 0 5.9 1.2 8 3.1l6-6C34.3 5.1 29.4 3 24 3 12.4 3 3 12.4 3 24s9.4 21 21 21c10.5 0 20.1-7.7 20.1-21 0-1.1-.1-2.1-.3-3.5z"/>
    <path fill="#34A853" d="M6.3 14.7l6.6 4.8C14.5 15.9 18.9 13 24 13c3.1 0 5.9 1.2 8 3.1l6-6C34.3 5.1 29.4 3 24 3 16.1 3 9.1 7.6 6.3 14.7z"/>
    <path fill="#FBBC05" d="M24 45c5.3 0 10.2-1.8 14.1-4.8l-6.5-5.3C29.9 36.2 27.1 37 24 37c-5.5 0-10.2-3.5-11.9-8.3l-6.5 5C9.3 41.2 16.1 45 24 45z"/>
    <path fill="#EA4335" d="M43.6 20.5H42V20H24v8h11.3c-1.5 4-5.4 7-10.3 7-5.5 0-10.2-3.5-11.9-8.3l-6.5 5C9.3 41.2 16.1 45 24 45c10.5 0 20.1-7.7 20.1-21 0-1.1-.1-2.1-.3-3.5z"/>
</svg>
