<svg width="360" height="97" viewBox="0 0 360 97" fill="none" xmlns="http://www.w3.org/2000/svg">
    <!-- Book-like icon (unchanged) -->
    <circle cx="51.1701" cy="82.5556" r="4.44444" fill="#E89806"/>
    <circle cx="28.0589" cy="82.5556" r="4.44444" fill="#E89806"/>
    <path d="M12.0565 45.1002C11.589 41.8832 14.0836 39 17.3343 39H70.5872C71.1289 39 71.5447 39.4805 71.4668 40.0167L71.2076 41.8003C70.6997 45.296 67.7028 47.8889 64.1704 47.8889H24.5897C23.506 47.8889 22.6744 48.8502 22.8304 49.9225L23.1262 51.9562C23.3804 53.7038 24.8787 55 26.6447 55H63.1255C66.3762 55 68.8708 57.8832 68.4034 61.1002L66.2997 75.5781C65.7918 79.0737 62.795 81.6667 59.2625 81.6667H57.3292C56.8979 78.6513 54.3047 76.3333 51.1701 76.3333C48.0354 76.3333 45.4422 78.6513 45.0109 81.6667H34.2181C33.7868 78.6513 31.1936 76.3333 28.059 76.3333C24.9245 76.3333 22.3315 78.651 21.8999 81.666C19.2873 81.6254 17.0829 79.6942 16.706 77.1002L16.1151 73.0334C15.9592 71.9611 16.7908 71 17.8744 71H54.5799C56.3502 71 57.8509 69.6975 58.1001 67.9448L58.3883 65.9168C58.5404 64.8462 57.7096 63.8889 56.6282 63.8889H19.4009C16.7516 63.8889 14.5038 61.9442 14.1229 59.3224L12.0565 45.1002Z" fill="url(#paint0_linear_1628_2715)"/>
    <path d="M64.4761 37.0602C48.8241 33.8887 32.6952 33.8816 17.0413 37.0382C16.9282 36.4792 16.8158 35.9196 16.7027 35.3607C32.5809 32.1588 48.9398 32.1666 64.8154 35.3827C64.7023 35.9416 64.5886 36.5006 64.4755 37.0602H64.4761Z" fill="url(#paint1_linear_1628_2715)"/>
    <path d="M64.6487 34.2376C67.0473 28.5266 69.6237 22.8705 72.3758 17.2764C71.9713 17.1827 71.5668 17.0916 71.1622 17.0018C71.0847 17.0238 65.6981 30.8167 59.2381 29.1081C52.6709 27.5192 55.9619 12.8067 56.0479 12.7789C55.4844 12.7176 54.9203 12.66 54.3561 12.6058C54.3581 12.6348 52.6644 28.5376 47.1705 27.9101C40.0217 27.2516 41.4349 4.2725 41.539 4.22856C41.2876 4.22727 41.0369 4.22662 40.7855 4.22662C40.5264 4.22662 40.2673 4.22662 40.0082 4.22792C40.1122 4.2725 41.5041 27.2523 34.3553 27.9043C28.8607 28.5266 27.1813 12.6226 27.1832 12.5935C26.6191 12.6471 26.055 12.7046 25.4909 12.7654C25.5348 12.8016 27.8992 28.2946 21.2538 29.2477C15.6132 30.1511 10.4366 16.9876 10.3733 16.9746C9.96811 17.0638 9.5636 17.1549 9.15973 17.248C11.9067 22.844 14.4779 28.5033 16.8714 34.2163C32.6435 31.0881 48.879 31.0952 64.6487 34.2382V34.2376Z" fill="url(#paint2_linear_1628_2715)"/>
    <path d="M57.4779 12.7635C57.4779 14.0287 56.4524 15.0542 55.1872 15.0542C53.9219 15.0542 52.8964 14.0287 52.8964 12.7635C52.8964 11.4982 53.9219 10.4734 55.1872 10.4734C56.4524 10.4734 57.4779 11.4989 57.4779 12.7635Z" fill="url(#paint3_linear_1628_2715)"/>
    <path d="M73.9693 17.1917C73.9693 18.457 72.9438 19.4825 71.6786 19.4825C70.4133 19.4825 69.3878 18.457 69.3878 17.1917C69.3878 15.9265 70.4133 14.901 71.6786 14.901C72.9438 14.901 73.9693 15.9265 73.9693 17.1917Z" fill="url(#paint4_linear_1628_2715)"/>
    <path d="M28.5409 12.9922C28.5409 14.2575 27.5154 15.2823 26.2502 15.2823C24.9849 15.2823 23.9594 14.2568 23.9594 12.9922C23.9594 11.7276 24.9849 10.7015 26.2502 10.7015C27.5154 10.7015 28.5409 11.727 28.5409 12.9922Z" fill="url(#paint5_linear_1628_2715)"/>
    <path d="M9.83499 19.5587C11.1001 19.5587 12.1257 18.5331 12.1257 17.268C12.1257 16.0029 11.1001 14.9773 9.83499 14.9773C8.56985 14.9773 7.54425 16.0029 7.54425 17.268C7.54425 18.5331 8.56985 19.5587 9.83499 19.5587Z" fill="url(#paint6_linear_1628_2715)"/>
    <path d="M44.202 5.03162C44.6475 3.14384 43.4784 1.2523 41.5906 0.806745C39.7028 0.361189 37.8113 1.53034 37.3657 3.41812C36.9202 5.3059 38.0893 7.19744 39.9771 7.64299C41.8649 8.08855 43.7564 6.9194 44.202 5.03162Z" fill="url(#paint7_linear_1628_2715)"/>
    <path d="M10.9723 41.3341C3.10171 43.1285 0 40.673 0 40.673C0 40.673 13.9958 54.8717 36.5679 41.4297C49.9181 33.4796 59.3932 30.5233 66.8224 31.1643C82.5636 32.5226 75.9033 50.077 66.7061 42.0875C68.0392 47.341 76.8862 48.2276 79.4464 40.9567C82.8725 31.2264 70.4993 19.5491 39.4596 33.3187C8.42049 47.0884 0.787705 31.4745 0.787705 31.4745C2.79735 38.6834 10.9723 41.3347 10.9723 41.3347V41.3341Z" fill="url(#paint8_linear_1628_2715)"/>
    <!-- Text: SamirAcademy -->
    <text x="68" y="70" font-family="Arial, sans-serif" font-size="45" font-weight="bold" fill="#01BE5F">AmIr</text>
    <text x="162" y="80" font-family="Arial, sans-serif" font-size="45" font-weight="bold" fill="#01BE5F">Academy</text>
    <circle cx="147" cy="30" r="4" fill="#E89806"/>
    <defs>
        <linearGradient id="paint0_linear_1628_2715" x1="41.7381" y1="39" x2="41.7381" y2="81.6667" gradientUnits="userSpaceOnUse">
            <stop stop-color="#01BE5F"/>
            <stop offset="1" stop-color="#A3E635"/>
        </linearGradient>
        <linearGradient id="paint1_linear_1628_2715" x1="40.7597" y1="37.0602" x2="40.7597" y2="32.9653" gradientUnits="userSpaceOnUse">
            <stop stop-color="#A3E635"/>
            <stop offset="1" stop-color="#01BE5F"/>
        </linearGradient>
        <linearGradient id="paint2_linear_1628_2715" x1="40.7681" y1="34.2376" x2="40.7681" y2="4.22533" gradientUnits="userSpaceOnUse">
            <stop stop-color="#A3E635"/>
            <stop offset="1" stop-color="#01BE5F"/>
        </linearGradient>
        <linearGradient id="paint3_linear_1628_2715" x1="55.1872" y1="10.4734" x2="55.1872" y2="15.0542" gradientUnits="userSpaceOnUse">
            <stop stop-color="#01BE5F"/>
            <stop offset="1" stop-color="#A3E635"/>
        </linearGradient>
        <linearGradient id="paint4_linear_1628_2715" x1="71.6786" y1="14.901" x2="71.6786" y2="19.4825" gradientUnits="userSpaceOnUse">
            <stop stop-color="#01BE5F"/>
            <stop offset="1" stop-color="#A3E635"/>
        </linearGradient>
        <linearGradient id="paint5_linear_1628_2715" x1="26.2502" y1="10.7015" x2="26.2502" y2="15.2823" gradientUnits="userSpaceOnUse">
            <stop stop-color="#01BE5F"/>
            <stop offset="1" stop-color="#A3E635"/>
        </linearGradient>
        <linearGradient id="paint6_linear_1628_2715" x1="9.83499" y1="14.9773" x2="9.83499" y2="19.5587" gradientUnits="userSpaceOnUse">
            <stop stop-color="#01BE5F"/>
            <stop offset="1" stop-color="#A3E635"/>
        </linearGradient>
        <linearGradient id="paint7_linear_1628_2715" x1="40.7838" y1="7.73893" x2="40.7838" y2="0.714851" gradientUnits="userSpaceOnUse">
            <stop stop-color="#01BE5F"/>
            <stop offset="1" stop-color="#A3E635"/>
        </linearGradient>
        <linearGradient id="paint8_linear_1628_2715" x1="40" y1="40" x2="2" y2="31" gradientUnits="userSpaceOnUse">
            <stop stop-color="#01BE5F"/>
            <stop offset="1" stop-color="#A3E635"/>
        </linearGradient>
        <linearGradient id="paint9_linear_1628_2715" x1="35" y1="27" x2="80" y2="46" gradientUnits="userSpaceOnUse">
            <stop stop-color="#01BE5F"/>
            <stop offset="1" stop-color="#A3E635"/>
        </linearGradient>
    </defs>
</svg>